<svg width="310" height="310" viewBox="0 0 310 310" fill="none" xmlns="http://www.w3.org/2000/svg">
<circle cx="155" cy="155" r="150" stroke="white" stroke-width="10"/>
<path d="M172.25 211.784C113.796 216.538 48 197.61 48 155C48 112.39 113.796 93.4616 172.25 98.2158C218.14 101.948 259.546 122.076 261 155C259.548 187.926 218.142 208.052 172.25 211.784Z" fill="url(#paint0_radial)"/>
<path d="M190 153.203C190 163.127 182.053 171.172 172.25 171.172C162.447 171.172 154.5 163.127 154.5 153.203C154.5 143.279 162.447 135.234 172.25 135.234C182.053 135.234 190 143.279 190 153.203Z" fill="url(#paint1_radial)"/>
<path d="M261 155C259.548 187.926 218.142 208.052 172.25 211.784C113.796 216.538 48 197.61 48 155C48 112.39 113.796 93.4616 172.25 98.2158C218.14 101.948 259.546 122.076 261 155ZM261 155H253.9M253.9 155C242.363 155 241.475 151.406 236.15 142.422C215.463 105.109 103.025 109.303 103.025 155C103.025 200.696 215.461 204.889 236.15 167.578C241.475 158.594 242.363 155 253.9 155ZM190 153.203C190 163.127 182.053 171.172 172.25 171.172C162.447 171.172 154.5 163.127 154.5 153.203C154.5 143.279 162.447 135.234 172.25 135.234C182.053 135.234 190 143.279 190 153.203Z" stroke="white" stroke-width="10" stroke-linejoin="round"/>
<path d="M261 155C259.548 187.926 218.142 208.052 172.25 211.784C113.796 216.538 48 197.61 48 155C48 112.39 113.796 93.4616 172.25 98.2158C218.14 101.948 259.546 122.076 261 155ZM261 155H253.9M253.9 155C242.363 155 241.475 151.406 236.15 142.422C215.463 105.109 103.025 109.303 103.025 155C103.025 200.696 215.461 204.889 236.15 167.578C241.475 158.594 242.363 155 253.9 155ZM190 153.203C190 163.127 182.053 171.172 172.25 171.172C162.447 171.172 154.5 163.127 154.5 153.203C154.5 143.279 162.447 135.234 172.25 135.234C182.053 135.234 190 143.279 190 153.203Z" stroke="white" stroke-width="10" stroke-linejoin="round"/>
<defs>
<radialGradient id="paint0_radial" cx="0" cy="0" r="1" gradientUnits="userSpaceOnUse" gradientTransform="translate(171.952 153.189) rotate(90) scale(17.6575 17.4517)">
<stop offset="0.9998" stop-color="white"/>
<stop offset="0.9999" stop-color="#F9DCDC"/>
<stop offset="1" stop-color="white" stop-opacity="0"/>
</radialGradient>
<radialGradient id="paint1_radial" cx="0" cy="0" r="1" gradientUnits="userSpaceOnUse" gradientTransform="translate(171.952 153.189) rotate(90) scale(17.6575 17.4517)">
<stop offset="0.9998" stop-color="white"/>
<stop offset="0.9999" stop-color="#F9DCDC"/>
<stop offset="1" stop-color="white" stop-opacity="0"/>
</radialGradient>
</defs>
</svg>
