<svg width="316" height="316" viewBox="0 0 316 316" fill="none" xmlns="http://www.w3.org/2000/svg">
<circle cx="158" cy="158" r="150" stroke="white" stroke-width="15"/>
<path d="M271.493 158.33C271.502 158.11 271.502 157.889 271.493 157.669C270.612 137.736 257.599 122.542 240.104 112.204C222.593 101.856 199.585 95.6702 175.858 93.7405C145.765 91.293 113.496 94.8921 88.4288 104.879C63.6601 114.746 43.5 132.035 43.5 158C43.5 183.965 63.6601 201.254 88.4288 211.121C113.496 221.108 145.765 224.707 175.858 222.26C199.585 220.33 222.594 214.144 240.105 203.797C257.6 193.459 270.614 178.265 271.493 158.33Z" fill="url(#paint0_radial)"/>
<path d="M271.493 158.33C271.502 158.11 271.502 157.889 271.493 157.669C270.612 137.736 257.599 122.542 240.104 112.204C222.593 101.856 199.585 95.6702 175.858 93.7405C145.765 91.293 113.496 94.8921 88.4288 104.879C63.6601 114.746 43.5 132.035 43.5 158C43.5 183.965 63.6601 201.254 88.4288 211.121C113.496 221.108 145.765 224.707 175.858 222.26C199.585 220.33 222.594 214.144 240.105 203.797C257.6 193.459 270.614 178.265 271.493 158.33Z" stroke="white" stroke-width="15" stroke-linejoin="round"/>
<path d="M271.493 158.33C271.502 158.11 271.502 157.889 271.493 157.669C270.612 137.736 257.599 122.542 240.104 112.204C222.593 101.856 199.585 95.6702 175.858 93.7405C145.765 91.293 113.496 94.8921 88.4288 104.879C63.6601 114.746 43.5 132.035 43.5 158C43.5 183.965 63.6601 201.254 88.4288 211.121C113.496 221.108 145.765 224.707 175.858 222.26C199.585 220.33 222.594 214.144 240.105 203.797C257.6 193.459 270.614 178.265 271.493 158.33Z" stroke="white" stroke-width="15" stroke-linejoin="round"/>
<defs>
<radialGradient id="paint0_radial" cx="0" cy="0" r="1" gradientUnits="userSpaceOnUse" gradientTransform="translate(174.952 156.189) rotate(90) scale(17.6575 17.4517)">
<stop offset="0.9998" stop-color="white"/>
<stop offset="0.9999" stop-color="#F9DCDC"/>
<stop offset="1" stop-color="white" stop-opacity="0"/>
</radialGradient>
</defs>
</svg>
